# xmcd
#
# Track frame offsets:
#	150
#	11466
#	23947
#	37483
#	51744
#	62411
#	80972
#	93531
#	106829
#	119313
#	131677
#	145924
#
# Disc length: 2156 seconds
#
# Revision: 1
# Processed by: cddbd v1.5.2PL0 Copyright (c) Steve Scherf et al.
# Submitted via: audiograbber 1.83.01
#
DISCID=af086a0c
DTITLE=The Pasadena Roof Orchestra - Two Original Classics - CD2 - Night Out
DYEAR=2015
DGENRE=Swing
TTITLE0=Young and Healthy
TTITLE1=I've Found A New Baby
TTITLE2=Mean To Me
TTITLE3=There's A Rainbow 'Round My Shoulder
TTITLE4=You're Never Fully Dressed Without A Smile
TTITLE5=Am Sonntag Will Mein Süsser Mit Mir Segeln Gehn
TTITLE6=Going Hollywood - Hoorah Hollywood
TTITLE7=Isn't This A Lovely Day
TTITLE8=Puttin' On The Ritz
TTITLE9=Keep Young and Beautiful
TTITLE10=Little Orphan Annie
TTITLE11=Yes Sir, That's My Baby
EXTD=
EXTT0=
EXTT1=
EXTT2=
EXTT3=
EXTT4=
EXTT5=
EXTT6=
EXTT7=
EXTT8=
EXTT9=
EXTT10=
EXTT11=
PLAYORDER=
